<svg width="23" height="23" viewBox="0 0 23 23" fill="none" xmlns="http://www.w3.org/2000/svg">
<path d="M0.825928 11.9004C0.825928 6.67814 4.48441 2.31317 9.37883 1.22463L9.8798 3.46582C6.01428 4.32609 3.12431 7.77576 3.12431 11.9004C3.12431 16.6726 6.99297 20.5413 11.7652 20.5413C16.5374 20.5413 20.4061 16.6726 20.4061 11.9004L22.7044 11.9004C22.7044 17.942 17.8067 22.8396 11.7652 22.8396C5.72359 22.8396 0.825928 17.942 0.825928 11.9004Z" fill="black"/>
<path d="M11.7652 0.961182V3.25953C15.8898 3.25953 19.3395 6.14951 20.1998 10.015L22.4434 9.51452C21.3547 4.62033 16.9873 0.961182 11.7652 0.961182Z" fill="black"/>
<path d="M11.7651 18.3678C14.4268 18.3678 16.713 16.7599 17.7052 14.4624L15.5987 13.5439C14.9608 15.0297 13.4845 16.0704 11.7651 16.0704C10.0638 16.0704 8.60046 15.0515 7.95193 13.5907L5.84543 14.5091C6.84835 16.7816 9.1215 18.3678 11.7651 18.3678Z" fill="black"/>
</svg>
