<svg width="267" height="46" viewBox="0 0 267 46" fill="none" xmlns="http://www.w3.org/2000/svg">
<g clip-path="url(#clip0_6_105)">
<path fill-rule="evenodd" clip-rule="evenodd" d="M21.5 5H72.5C82.4411 5 90.5 13.0589 90.5 23C90.5 32.9411 82.4411 41 72.5 41H21.5C11.5589 41 3.5 32.9411 3.5 23C3.5 13.0589 11.5589 5 21.5 5ZM21.5 6.59116C12.4376 6.59116 5.09116 13.9376 5.09116 23C5.09116 32.0624 12.4376 39.4088 21.5 39.4088H72.5C81.5624 39.4088 88.9088 32.0624 88.9088 23C88.9088 13.9376 81.5624 6.59116 72.5 6.59116H21.5Z" fill="white"/>
<rect x="11.4557" y="11.9612" width="21.8785" height="21.8785" rx="10.9392" fill="white"/>
<path d="M23.9366 29.4749H26.222V16.3478H22.8977C19.5546 16.3478 17.798 18.0666 17.798 20.5976C17.798 22.6186 18.7613 23.8085 20.4801 25.0362L17.4958 29.4749H19.9701L23.2944 24.5074L22.1422 23.733C20.7445 22.7886 20.0646 22.0519 20.0646 20.4654C20.0646 19.0677 21.0467 18.1233 22.9166 18.1233H23.9366V29.4749Z" fill="black"/>
<path fill-rule="evenodd" clip-rule="evenodd" d="M71.3406 30.8463V30.8563H68.1479V14.5612H73.0776C74.3728 14.5612 75.5675 14.7017 76.6519 14.9828C77.7362 15.264 78.68 15.7158 79.4932 16.3383C80.2964 16.9607 80.929 17.7941 81.3808 18.8182C81.8326 19.8523 82.0635 21.1174 82.0635 22.6133C82.0635 24.3904 81.6619 25.8965 80.8687 27.1113C80.0756 28.3262 78.9812 29.2599 77.5956 29.8924C76.2101 30.525 74.6438 30.8463 72.8969 30.8463H71.3406ZM71.3406 28.4567V16.9507H72.7965C73.9611 16.9507 75.0053 17.1214 75.9089 17.4628C76.8125 17.8041 77.5254 18.3965 78.0374 19.2198C78.5495 20.0531 78.8105 21.1676 78.8105 22.5732C78.8105 23.8784 78.5495 24.9627 78.0274 25.8362C77.5053 26.7097 76.7724 27.3623 75.8386 27.8041C74.9049 28.2459 73.8206 28.4567 72.5856 28.4567H71.3406Z" fill="white"/>
<path d="M65.3366 30.8563V14.5612H62.174V30.8563H65.3366Z" fill="white"/>
<path d="M34.8259 22.9004C34.8259 17.6781 38.4844 13.3132 43.3788 12.2246L43.8798 14.4658C40.0143 15.3261 37.1243 18.7758 37.1243 22.9004C37.1243 27.6726 40.993 31.5413 45.7652 31.5413C50.5374 31.5413 54.4061 27.6726 54.4061 22.9004L56.7044 22.9004C56.7044 28.942 51.8067 33.8396 45.7652 33.8396C39.7236 33.8396 34.8259 28.942 34.8259 22.9004Z" fill="white"/>
<path d="M45.7652 11.9612V14.2595C49.8898 14.2595 53.3395 17.1495 54.1998 21.015L56.4434 20.5145C55.3547 15.6203 50.9873 11.9612 45.7652 11.9612Z" fill="white"/>
<path d="M45.7651 29.3678C48.4268 29.3678 50.713 27.7599 51.7052 25.4624L49.5987 24.5439C48.9608 26.0297 47.4845 27.0704 45.7651 27.0704C44.0638 27.0704 42.6005 26.0515 41.9519 24.5907L39.8454 25.5091C40.8483 27.7816 43.1215 29.3678 45.7651 29.3678Z" fill="white"/>
</g>
<path d="M101.762 29.17C100.935 29.17 100.159 29.034 99.4332 28.762C98.7192 28.49 98.0959 28.0877 97.5632 27.555C97.0419 27.0223 96.6282 26.3707 96.3222 25.6C96.0162 24.818 95.8632 23.917 95.8632 22.897C95.8632 21.877 96.0162 20.9817 96.3222 20.211C96.6282 19.429 97.0419 18.7773 97.5632 18.256C98.0959 17.7233 98.7192 17.3267 99.4332 17.066C100.159 16.794 100.935 16.658 101.762 16.658C102.601 16.658 103.377 16.794 104.091 17.066C104.817 17.3267 105.446 17.7177 105.978 18.239C106.511 18.7603 106.925 19.412 107.219 20.194C107.525 20.9647 107.678 21.86 107.678 22.88C107.678 23.8887 107.525 24.784 107.219 25.566C106.925 26.348 106.511 27.0053 105.978 27.538C105.446 28.0707 104.817 28.4787 104.091 28.762C103.377 29.034 102.601 29.17 101.762 29.17ZM101.762 27.402C102.295 27.402 102.788 27.3227 103.241 27.164C103.706 27.0053 104.103 26.7503 104.431 26.399C104.771 26.0363 105.038 25.5717 105.23 25.005C105.423 24.427 105.519 23.73 105.519 22.914C105.519 22.098 105.423 21.4067 105.23 20.84C105.038 20.2733 104.771 19.8143 104.431 19.463C104.103 19.1003 103.706 18.8397 103.241 18.681C102.788 18.511 102.295 18.426 101.762 18.426C101.23 18.426 100.737 18.511 100.283 18.681C99.8299 18.8397 99.4332 19.1003 99.0932 19.463C98.7645 19.8143 98.5039 20.2733 98.3112 20.84C98.1185 21.4067 98.0222 22.098 98.0222 22.914C98.0222 23.73 98.1185 24.427 98.3112 25.005C98.5039 25.5717 98.7645 26.0363 99.0932 26.399C99.4332 26.7503 99.8299 27.0053 100.283 27.164C100.737 27.3227 101.23 27.402 101.762 27.402ZM112.374 16.811H115.077L119.395 29H117.27L116.148 25.804H111.014L109.892 29H108.073L112.374 16.811ZM115.519 24.036L113.581 18.545L111.643 24.036H115.519ZM126.287 27.555C126.049 28.0083 125.692 28.3937 125.216 28.711C124.751 29.017 124.139 29.17 123.38 29.17C122.552 29.17 121.878 28.932 121.357 28.456C120.835 27.98 120.575 27.2547 120.575 26.28V20.177H122.564V26.229C122.564 26.739 122.705 27.0847 122.989 27.266C123.272 27.436 123.618 27.521 124.026 27.521C124.581 27.521 125.034 27.4077 125.386 27.181C125.737 26.943 126.037 26.6257 126.287 26.229V20.177H128.242V29H126.44L126.321 27.555H126.287ZM135.214 28.728C135.01 28.8527 134.755 28.9547 134.449 29.034C134.143 29.1247 133.792 29.17 133.395 29.17C132.919 29.17 132.517 29.1077 132.188 28.983C131.871 28.847 131.61 28.6657 131.406 28.439C131.202 28.2123 131.055 27.9517 130.964 27.657C130.874 27.351 130.828 27.028 130.828 26.688V21.775H129.774V20.177H130.828V18.324H132.8V20.177H135.333V21.775H132.8V26.467C132.8 26.8297 132.885 27.096 133.055 27.266C133.237 27.436 133.531 27.521 133.939 27.521C134.211 27.521 134.449 27.4813 134.653 27.402C134.857 27.3227 135.044 27.215 135.214 27.079V28.728ZM141.363 21.639C140.785 21.639 140.309 21.7637 139.935 22.013C139.561 22.251 139.255 22.5627 139.017 22.948V29H137.045V16.811H139.017V20.075L139 21.622H139.017C139.267 21.1687 139.629 20.789 140.105 20.483C140.581 20.1657 141.193 20.007 141.941 20.007C142.803 20.007 143.505 20.2393 144.049 20.704C144.605 21.1687 144.882 21.877 144.882 22.829V29H142.893V23.033C142.893 22.523 142.757 22.166 142.485 21.962C142.213 21.7467 141.839 21.639 141.363 21.639ZM150.487 27.402C150.748 27.1753 150.952 26.8637 151.099 26.467C151.258 26.0703 151.382 25.5773 151.473 24.988C151.564 24.3873 151.632 23.6903 151.677 22.897C151.722 22.1037 151.762 21.197 151.796 20.177H158.256V27.402H159.582V31.516H157.865L157.712 29H151.626L151.473 31.516H149.739V27.402H150.487ZM156.284 27.402V21.775H153.496C153.439 23.169 153.343 24.325 153.207 25.243C153.082 26.1497 152.873 26.8693 152.578 27.402H156.284ZM161.866 25.872C161.991 25.294 162.07 24.546 162.104 23.628C162.149 22.6987 162.172 21.5483 162.172 20.177H168.513V29H166.541V21.775H163.974C163.951 22.9423 163.906 23.9737 163.838 24.869C163.77 25.7643 163.628 26.5237 163.413 27.147C163.209 27.759 162.909 28.2293 162.512 28.558C162.127 28.8867 161.605 29.051 160.948 29.051C160.857 29.051 160.767 29.0453 160.676 29.034C160.597 29.034 160.512 29.0283 160.421 29.017V27.181C160.534 27.2037 160.619 27.215 160.676 27.215C160.982 27.215 161.226 27.1073 161.407 26.892C161.6 26.6653 161.753 26.3253 161.866 25.872ZM170.645 23.067C170.645 22.591 170.735 22.1717 170.917 21.809C171.098 21.4463 171.347 21.146 171.665 20.908C171.993 20.6587 172.384 20.4773 172.838 20.364C173.302 20.2393 173.812 20.177 174.368 20.177H177.649V29H175.677V26.008H174.419L172.328 29H170.118L172.549 25.583C171.937 25.4017 171.466 25.107 171.138 24.699C170.809 24.291 170.645 23.747 170.645 23.067ZM175.677 24.444V21.741H174.521C173.977 21.741 173.529 21.843 173.178 22.047C172.838 22.251 172.668 22.591 172.668 23.067C172.668 23.5543 172.821 23.9057 173.127 24.121C173.444 24.3363 173.892 24.444 174.47 24.444H175.677ZM183.715 20.636C183.715 19.99 183.829 19.429 184.055 18.953C184.282 18.4657 184.599 18.069 185.007 17.763C185.415 17.4457 185.903 17.2077 186.469 17.049C187.047 16.8903 187.688 16.811 188.39 16.811H192.351V29H190.277V24.308H188.39L185.279 29H182.882L186.316 24.002C185.432 23.7867 184.775 23.3957 184.344 22.829C183.925 22.251 183.715 21.52 183.715 20.636ZM190.277 22.591V18.596H188.373C187.603 18.596 186.985 18.749 186.52 19.055C186.067 19.3497 185.84 19.8597 185.84 20.585C185.84 21.299 186.044 21.8147 186.452 22.132C186.86 22.438 187.438 22.591 188.186 22.591H190.277ZM200.447 25.277H196.724V29H194.752V20.177H196.724V23.679H200.447V20.177H202.419V29H200.447V25.277ZM204.392 27.402C204.653 27.1753 204.857 26.8637 205.004 26.467C205.163 26.0703 205.288 25.5773 205.378 24.988C205.469 24.3873 205.537 23.6903 205.582 22.897C205.628 22.1037 205.667 21.197 205.701 20.177H212.161V27.402H213.487V31.516H211.77L211.617 29H205.531L205.378 31.516H203.644V27.402H204.392ZM210.189 27.402V21.775H207.401C207.345 23.169 207.248 24.325 207.112 25.243C206.988 26.1497 206.778 26.8693 206.483 27.402H210.189ZM222.152 28.354C222.027 28.4333 221.874 28.524 221.693 28.626C221.512 28.7167 221.296 28.8017 221.047 28.881C220.798 28.9603 220.509 29.0283 220.18 29.085C219.851 29.1417 219.477 29.17 219.058 29.17C217.437 29.17 216.225 28.7677 215.42 27.963C214.627 27.1583 214.23 26.0307 214.23 24.58C214.23 23.866 214.338 23.2257 214.553 22.659C214.768 22.0923 215.069 21.6163 215.454 21.231C215.839 20.8343 216.298 20.534 216.831 20.33C217.364 20.1147 217.947 20.007 218.582 20.007C219.239 20.007 219.829 20.1147 220.35 20.33C220.883 20.5453 221.319 20.8683 221.659 21.299C221.999 21.7297 222.231 22.2623 222.356 22.897C222.492 23.5317 222.498 24.274 222.373 25.124H216.27C216.349 25.9287 216.616 26.535 217.069 26.943C217.522 27.3397 218.231 27.538 219.194 27.538C219.897 27.538 220.48 27.453 220.945 27.283C221.421 27.1017 221.823 26.9147 222.152 26.722V28.354ZM218.582 21.571C218.004 21.571 217.517 21.7467 217.12 22.098C216.723 22.4493 216.463 22.9707 216.338 23.662H220.486C220.509 22.948 220.35 22.421 220.01 22.081C219.67 21.741 219.194 21.571 218.582 21.571ZM226.941 25.413H226.176V29H224.204V20.177H226.176V23.815H227.009L229.814 20.177H231.888L228.556 24.427L232.024 29H229.695L226.941 25.413ZM236.982 29.17C236.268 29.17 235.628 29.068 235.061 28.864C234.495 28.6487 234.013 28.3483 233.616 27.963C233.22 27.5663 232.914 27.0847 232.698 26.518C232.483 25.9513 232.375 25.3053 232.375 24.58C232.375 23.866 232.483 23.2257 232.698 22.659C232.914 22.0923 233.22 21.6163 233.616 21.231C234.013 20.8343 234.5 20.534 235.078 20.33C235.656 20.1147 236.302 20.007 237.016 20.007C237.628 20.007 238.161 20.075 238.614 20.211C239.079 20.347 239.447 20.517 239.719 20.721V22.353C239.368 22.1263 238.983 21.9507 238.563 21.826C238.155 21.7013 237.679 21.639 237.135 21.639C235.311 21.639 234.398 22.6193 234.398 24.58C234.398 26.5407 235.294 27.521 237.084 27.521C237.662 27.521 238.155 27.4587 238.563 27.334C238.983 27.198 239.368 27.028 239.719 26.824V28.456C239.425 28.6487 239.056 28.8187 238.614 28.966C238.172 29.102 237.628 29.17 236.982 29.17ZM247.532 16.811V29H245.475V16.811H247.532ZM250.14 16.811H254.254C255.115 16.811 255.914 16.9073 256.651 17.1C257.399 17.2927 258.045 17.61 258.589 18.052C259.144 18.494 259.575 19.0777 259.881 19.803C260.198 20.5283 260.357 21.4237 260.357 22.489C260.357 23.5657 260.198 24.512 259.881 25.328C259.575 26.1327 259.139 26.807 258.572 27.351C258.017 27.895 257.354 28.3087 256.583 28.592C255.824 28.864 254.991 29 254.084 29H250.14V16.811ZM252.197 18.596V27.232H254.152C254.753 27.232 255.297 27.1413 255.784 26.96C256.283 26.7787 256.708 26.501 257.059 26.127C257.422 25.753 257.699 25.277 257.892 24.699C258.096 24.1097 258.198 23.4127 258.198 22.608C258.198 21.8147 258.102 21.163 257.909 20.653C257.716 20.1317 257.444 19.718 257.093 19.412C256.753 19.106 256.345 18.8963 255.869 18.783C255.393 18.6583 254.877 18.596 254.322 18.596H252.197Z" fill="white"/>
<defs>
<clipPath id="clip0_6_105">
<rect width="87" height="36" fill="white" transform="translate(3.5 5)"/>
</clipPath>
</defs>
</svg>
