<svg width="275" height="36" viewBox="0 0 275 36" fill="none" xmlns="http://www.w3.org/2000/svg">
<g clip-path="url(#clip0_4_103)">
<path fill-rule="evenodd" clip-rule="evenodd" d="M18.5 0H69.5C79.4411 0 87.5 8.05888 87.5 18C87.5 27.9411 79.4411 36 69.5 36H18.5C8.55886 36 0.5 27.9411 0.5 18C0.5 8.05888 8.55888 0 18.5 0ZM18.5 1.59116C9.43765 1.59116 2.09116 8.93765 2.09116 18C2.09116 27.0624 9.43763 34.4088 18.5 34.4088H69.5C78.5624 34.4088 85.9088 27.0624 85.9088 18C85.9088 8.93765 78.5624 1.59116 69.5 1.59116H18.5Z" fill="black"/>
<rect x="8.45569" y="6.96118" width="21.8785" height="21.8785" rx="10.9392" fill="black"/>
<path d="M20.9366 24.4749H23.222V11.3478H19.8977C16.5546 11.3478 14.798 13.0666 14.798 15.5976C14.798 17.6186 15.7613 18.8085 17.4801 20.0362L14.4958 24.4749H16.9701L20.2944 19.5074L19.1422 18.733C17.7445 17.7886 17.0646 17.0519 17.0646 15.4654C17.0646 14.0677 18.0467 13.1233 19.9166 13.1233H20.9366V24.4749Z" fill="white"/>
<path fill-rule="evenodd" clip-rule="evenodd" d="M68.3406 25.8463V25.8563H65.1479V9.56116H70.0776C71.3728 9.56116 72.5675 9.70172 73.6519 9.98284C74.7362 10.264 75.68 10.7158 76.4932 11.3383C77.2964 11.9607 77.929 12.7941 78.3808 13.8182C78.8326 14.8523 79.0635 16.1174 79.0635 17.6133C79.0635 19.3904 78.6619 20.8965 77.8687 22.1113C77.0756 23.3262 75.9812 24.2599 74.5956 24.8924C73.2101 25.525 71.6438 25.8463 69.8969 25.8463H68.3406ZM68.3406 23.4567V11.9507H69.7965C70.9611 11.9507 72.0053 12.1214 72.9089 12.4628C73.8125 12.8041 74.5254 13.3965 75.0374 14.2198C75.5495 15.0531 75.8105 16.1676 75.8105 17.5732C75.8105 18.8784 75.5495 19.9627 75.0274 20.8362C74.5053 21.7097 73.7724 22.3623 72.8386 22.8041C71.9049 23.2459 70.8206 23.4567 69.5856 23.4567H68.3406Z" fill="black"/>
<path d="M62.3366 25.8563V9.56119H59.174V25.8563H62.3366Z" fill="black"/>
<path d="M31.8259 17.9004C31.8259 12.6781 35.4844 8.31317 40.3788 7.22463L40.8798 9.46582C37.0143 10.3261 34.1243 13.7758 34.1243 17.9004C34.1243 22.6726 37.993 26.5413 42.7652 26.5413C47.5374 26.5413 51.4061 22.6726 51.4061 17.9004L53.7044 17.9004C53.7044 23.942 48.8067 28.8396 42.7652 28.8396C36.7236 28.8396 31.8259 23.942 31.8259 17.9004Z" fill="black"/>
<path d="M42.7652 6.96118V9.25953C46.8898 9.25953 50.3395 12.1495 51.1998 16.015L53.4434 15.5145C52.3547 10.6203 47.9873 6.96118 42.7652 6.96118Z" fill="black"/>
<path d="M42.7651 24.3678C45.4268 24.3678 47.713 22.7599 48.7052 20.4624L46.5987 19.5439C45.9608 21.0297 44.4845 22.0704 42.7651 22.0704C41.0638 22.0704 39.6005 21.0515 38.9519 19.5907L36.8454 20.5091C37.8483 22.7816 40.1215 24.3678 42.7651 24.3678Z" fill="black"/>
</g>
<path d="M103.672 24.18C102.796 24.18 101.974 24.036 101.206 23.748C100.45 23.46 99.7896 23.034 99.2256 22.47C98.6736 21.906 98.2356 21.216 97.9116 20.4C97.5876 19.572 97.4256 18.618 97.4256 17.538C97.4256 16.458 97.5876 15.51 97.9116 14.694C98.2356 13.866 98.6736 13.176 99.2256 12.624C99.7896 12.06 100.45 11.64 101.206 11.364C101.974 11.076 102.796 10.932 103.672 10.932C104.56 10.932 105.382 11.076 106.138 11.364C106.906 11.64 107.572 12.054 108.136 12.606C108.7 13.158 109.138 13.848 109.45 14.676C109.774 15.492 109.936 16.44 109.936 17.52C109.936 18.588 109.774 19.536 109.45 20.364C109.138 21.192 108.7 21.888 108.136 22.452C107.572 23.016 106.906 23.448 106.138 23.748C105.382 24.036 104.56 24.18 103.672 24.18ZM103.672 22.308C104.236 22.308 104.758 22.224 105.238 22.056C105.73 21.888 106.15 21.618 106.498 21.246C106.858 20.862 107.14 20.37 107.344 19.77C107.548 19.158 107.65 18.42 107.65 17.556C107.65 16.692 107.548 15.96 107.344 15.36C107.14 14.76 106.858 14.274 106.498 13.902C106.15 13.518 105.73 13.242 105.238 13.074C104.758 12.894 104.236 12.804 103.672 12.804C103.108 12.804 102.586 12.894 102.106 13.074C101.626 13.242 101.206 13.518 100.846 13.902C100.498 14.274 100.222 14.76 100.018 15.36C99.8136 15.96 99.7116 16.692 99.7116 17.556C99.7116 18.42 99.8136 19.158 100.018 19.77C100.222 20.37 100.498 20.862 100.846 21.246C101.206 21.618 101.626 21.888 102.106 22.056C102.586 22.224 103.108 22.308 103.672 22.308ZM114.907 11.094H117.769L122.341 24H120.091L118.903 20.616H113.467L112.279 24H110.353L114.907 11.094ZM118.237 18.744L116.185 12.93L114.133 18.744H118.237ZM129.639 22.47C129.387 22.95 129.009 23.358 128.505 23.694C128.013 24.018 127.365 24.18 126.561 24.18C125.685 24.18 124.971 23.928 124.419 23.424C123.867 22.92 123.591 22.152 123.591 21.12V14.658H125.697V21.066C125.697 21.606 125.847 21.972 126.147 22.164C126.447 22.344 126.813 22.434 127.245 22.434C127.833 22.434 128.313 22.314 128.685 22.074C129.057 21.822 129.375 21.486 129.639 21.066V14.658H131.709V24H129.801L129.675 22.47H129.639ZM139.091 23.712C138.875 23.844 138.605 23.952 138.281 24.036C137.957 24.132 137.585 24.18 137.165 24.18C136.661 24.18 136.235 24.114 135.887 23.982C135.551 23.838 135.275 23.646 135.059 23.406C134.843 23.166 134.687 22.89 134.591 22.578C134.495 22.254 134.447 21.912 134.447 21.552V16.35H133.331V14.658H134.447V12.696H136.535V14.658H139.217V16.35H136.535V21.318C136.535 21.702 136.625 21.984 136.805 22.164C136.997 22.344 137.309 22.434 137.741 22.434C138.029 22.434 138.281 22.392 138.497 22.308C138.713 22.224 138.911 22.11 139.091 21.966V23.712ZM145.602 16.206C144.99 16.206 144.486 16.338 144.09 16.602C143.694 16.854 143.37 17.184 143.118 17.592V24H141.03V11.094H143.118V14.55L143.1 16.188H143.118C143.382 15.708 143.766 15.306 144.27 14.982C144.774 14.646 145.422 14.478 146.214 14.478C147.126 14.478 147.87 14.724 148.446 15.216C149.034 15.708 149.328 16.458 149.328 17.466V24H147.222V17.682C147.222 17.142 147.078 16.764 146.79 16.548C146.502 16.32 146.106 16.206 145.602 16.206ZM155.263 22.308C155.539 22.068 155.755 21.738 155.911 21.318C156.079 20.898 156.211 20.376 156.307 19.752C156.403 19.116 156.475 18.378 156.523 17.538C156.571 16.698 156.613 15.738 156.649 14.658H163.489V22.308H164.893V26.664H163.075L162.913 24H156.469L156.307 26.664H154.471V22.308H155.263ZM161.401 22.308V16.35H158.449C158.389 17.826 158.287 19.05 158.143 20.022C158.011 20.982 157.789 21.744 157.477 22.308H161.401ZM167.311 20.688C167.443 20.076 167.527 19.284 167.563 18.312C167.611 17.328 167.635 16.11 167.635 14.658H174.349V24H172.261V16.35H169.543C169.519 17.586 169.471 18.678 169.399 19.626C169.327 20.574 169.177 21.378 168.949 22.038C168.733 22.686 168.415 23.184 167.995 23.532C167.587 23.88 167.035 24.054 166.339 24.054C166.243 24.054 166.147 24.048 166.051 24.036C165.967 24.036 165.877 24.03 165.781 24.018V22.074C165.901 22.098 165.991 22.11 166.051 22.11C166.375 22.11 166.633 21.996 166.825 21.768C167.029 21.528 167.191 21.168 167.311 20.688ZM176.606 17.718C176.606 17.214 176.702 16.77 176.894 16.386C177.086 16.002 177.35 15.684 177.686 15.432C178.034 15.168 178.448 14.976 178.928 14.856C179.42 14.724 179.96 14.658 180.548 14.658H184.022V24H181.934V20.832H180.602L178.388 24H176.048L178.622 20.382C177.974 20.19 177.476 19.878 177.128 19.446C176.78 19.014 176.606 18.438 176.606 17.718ZM181.934 19.176V16.314H180.71C180.134 16.314 179.66 16.422 179.288 16.638C178.928 16.854 178.748 17.214 178.748 17.718C178.748 18.234 178.91 18.606 179.234 18.834C179.57 19.062 180.044 19.176 180.656 19.176H181.934ZM190.445 15.144C190.445 14.46 190.565 13.866 190.805 13.362C191.045 12.846 191.381 12.426 191.813 12.102C192.245 11.766 192.761 11.514 193.361 11.346C193.973 11.178 194.651 11.094 195.395 11.094H199.589V24H197.393V19.032H195.395L192.101 24H189.563L193.199 18.708C192.263 18.48 191.567 18.066 191.111 17.466C190.667 16.854 190.445 16.08 190.445 15.144ZM197.393 17.214V12.984H195.377C194.561 12.984 193.907 13.146 193.415 13.47C192.935 13.782 192.695 14.322 192.695 15.09C192.695 15.846 192.911 16.392 193.343 16.728C193.775 17.052 194.387 17.214 195.179 17.214H197.393ZM208.162 20.058H204.22V24H202.132V14.658H204.22V18.366H208.162V14.658H210.25V24H208.162V20.058ZM212.339 22.308C212.615 22.068 212.831 21.738 212.987 21.318C213.155 20.898 213.287 20.376 213.383 19.752C213.479 19.116 213.551 18.378 213.599 17.538C213.647 16.698 213.689 15.738 213.725 14.658H220.565V22.308H221.969V26.664H220.151L219.989 24H213.545L213.383 26.664H211.547V22.308H212.339ZM218.477 22.308V16.35H215.525C215.465 17.826 215.363 19.05 215.219 20.022C215.087 20.982 214.865 21.744 214.553 22.308H218.477ZM231.143 23.316C231.011 23.4 230.849 23.496 230.657 23.604C230.465 23.7 230.237 23.79 229.973 23.874C229.709 23.958 229.403 24.03 229.055 24.09C228.707 24.15 228.311 24.18 227.867 24.18C226.151 24.18 224.867 23.754 224.015 22.902C223.175 22.05 222.755 20.856 222.755 19.32C222.755 18.564 222.869 17.886 223.097 17.286C223.325 16.686 223.643 16.182 224.051 15.774C224.459 15.354 224.945 15.036 225.509 14.82C226.073 14.592 226.691 14.478 227.363 14.478C228.059 14.478 228.683 14.592 229.235 14.82C229.799 15.048 230.261 15.39 230.621 15.846C230.981 16.302 231.227 16.866 231.359 17.538C231.503 18.21 231.509 18.996 231.377 19.896H224.915C224.999 20.748 225.281 21.39 225.761 21.822C226.241 22.242 226.991 22.452 228.011 22.452C228.755 22.452 229.373 22.362 229.865 22.182C230.369 21.99 230.795 21.792 231.143 21.588V23.316ZM227.363 16.134C226.751 16.134 226.235 16.32 225.815 16.692C225.395 17.064 225.119 17.616 224.987 18.348H229.379C229.403 17.592 229.235 17.034 228.875 16.674C228.515 16.314 228.011 16.134 227.363 16.134ZM236.214 20.202H235.404V24H233.316V14.658H235.404V18.51H236.286L239.256 14.658H241.452L237.924 19.158L241.596 24H239.13L236.214 20.202ZM246.846 24.18C246.09 24.18 245.412 24.072 244.812 23.856C244.212 23.628 243.702 23.31 243.282 22.902C242.862 22.482 242.538 21.972 242.31 21.372C242.082 20.772 241.968 20.088 241.968 19.32C241.968 18.564 242.082 17.886 242.31 17.286C242.538 16.686 242.862 16.182 243.282 15.774C243.702 15.354 244.218 15.036 244.83 14.82C245.442 14.592 246.126 14.478 246.882 14.478C247.53 14.478 248.094 14.55 248.574 14.694C249.066 14.838 249.456 15.018 249.744 15.234V16.962C249.372 16.722 248.964 16.536 248.52 16.404C248.088 16.272 247.584 16.206 247.008 16.206C245.076 16.206 244.11 17.244 244.11 19.32C244.11 21.396 245.058 22.434 246.954 22.434C247.566 22.434 248.088 22.368 248.52 22.236C248.964 22.092 249.372 21.912 249.744 21.696V23.424C249.432 23.628 249.042 23.808 248.574 23.964C248.106 24.108 247.53 24.18 246.846 24.18ZM258.016 11.094V24H255.838V11.094H258.016ZM260.778 11.094H265.134C266.046 11.094 266.892 11.196 267.672 11.4C268.464 11.604 269.148 11.94 269.724 12.408C270.312 12.876 270.768 13.494 271.092 14.262C271.428 15.03 271.596 15.978 271.596 17.106C271.596 18.246 271.428 19.248 271.092 20.112C270.768 20.964 270.306 21.678 269.706 22.254C269.118 22.83 268.416 23.268 267.6 23.568C266.796 23.856 265.914 24 264.954 24H260.778V11.094ZM262.956 12.984V22.128H265.026C265.662 22.128 266.238 22.032 266.754 21.84C267.282 21.648 267.732 21.354 268.104 20.958C268.488 20.562 268.782 20.058 268.986 19.446C269.202 18.822 269.31 18.084 269.31 17.232C269.31 16.392 269.208 15.702 269.004 15.162C268.8 14.61 268.512 14.172 268.14 13.848C267.78 13.524 267.348 13.302 266.844 13.182C266.34 13.05 265.794 12.984 265.206 12.984H262.956Z" fill="#262633"/>
<defs>
<clipPath id="clip0_4_103">
<rect width="87" height="36" fill="white" transform="translate(0.5)"/>
</clipPath>
</defs>
</svg>
